<?xml version="1.0" encoding="utf-8"?>
<!-- Generator: Adobe Illustrator 24.3.0, SVG Export Plug-In . SVG Version: 6.00 Build 0)  -->
<svg version="1.1" id="Layer_1" xmlns="http://www.w3.org/2000/svg" xmlns:xlink="http://www.w3.org/1999/xlink" x="0px" y="0px"
	 viewBox="0 0 145 27" style="enable-background:new 0 0 145 27;" xml:space="preserve">
<g>
	<path d="M8.9,16.1l4.4-14.4h4.4L11,20.9H6.8L0.2,1.7h4.4L8.9,16.1z"/>
	<path d="M22.8,2.9c0-0.6,0.2-1,0.6-1.4C23.8,1.1,24.3,1,24.9,1c0.7,0,1.2,0.2,1.6,0.6s0.6,0.8,0.6,1.4c0,0.6-0.2,1.1-0.6,1.4
		c-0.4,0.4-0.9,0.6-1.5,0.6s-1.2-0.2-1.5-0.6S22.8,3.5,22.8,2.9z M26.9,20.9H23V6.6h3.8V20.9z"/>
	<path d="M41.3,16.9c0-0.5-0.2-0.8-0.7-1.1c-0.5-0.3-1.2-0.5-2.2-0.7c-3.4-0.7-5.1-2.2-5.1-4.3c0-1.3,0.5-2.3,1.6-3.2
		s2.4-1.3,4.1-1.3c1.8,0,3.3,0.4,4.3,1.3c1.1,0.9,1.6,2,1.6,3.3h-3.8c0-0.5-0.2-1-0.5-1.4c-0.4-0.4-0.9-0.5-1.6-0.5
		c-0.6,0-1.1,0.1-1.5,0.4S37,10.2,37,10.6c0,0.4,0.2,0.8,0.6,1s1.1,0.5,2,0.7c0.9,0.2,1.7,0.4,2.4,0.6c2,0.7,3,2,3,3.8
		c0,1.3-0.6,2.4-1.7,3.2c-1.1,0.8-2.6,1.2-4.3,1.2c-1.2,0-2.3-0.2-3.2-0.6s-1.7-1-2.2-1.8c-0.5-0.7-0.8-1.5-0.8-2.4h3.6
		c0,0.7,0.3,1.2,0.8,1.6s1.1,0.5,1.9,0.5c0.7,0,1.3-0.1,1.7-0.4C41.1,17.8,41.3,17.4,41.3,16.9z"/>
	<path d="M54.8,8.2c1-1.2,2.3-1.8,3.8-1.8c3.1,0,4.7,1.8,4.7,5.4v9.1h-3.8v-9c0-0.8-0.2-1.4-0.5-1.8c-0.4-0.4-0.9-0.6-1.8-0.6
		c-1.1,0-1.9,0.4-2.4,1.3v10.1H51V0.6h3.8V8.2z"/>
	<path d="M82.2,15.7l1.9-9.1h3.7l-3.6,14.3H81l-2.7-9l-2.7,9h-3.2L68.7,6.6h3.7l1.9,9.1l2.6-9.1h2.8L82.2,15.7z"/>
	<path d="M101.6,20.9c-0.2-0.3-0.3-0.8-0.4-1.3c-0.9,1-2.1,1.5-3.6,1.5c-1.4,0-2.6-0.4-3.5-1.2c-0.9-0.8-1.4-1.8-1.4-3.1
		c0-1.5,0.6-2.7,1.7-3.5c1.1-0.8,2.7-1.2,4.9-1.2h1.8v-0.8c0-0.7-0.2-1.2-0.5-1.6c-0.3-0.4-0.9-0.6-1.6-0.6c-0.6,0-1.1,0.2-1.5,0.5
		c-0.4,0.3-0.5,0.7-0.5,1.3H93c0-0.8,0.3-1.6,0.8-2.3S95,7.4,96,7c0.9-0.4,2-0.6,3.1-0.6c1.8,0,3.2,0.4,4.2,1.3
		c1,0.9,1.5,2.1,1.5,3.7v6.2c0,1.4,0.2,2.4,0.6,3.1v0.2H101.6z M98.4,18.2c0.6,0,1.1-0.1,1.6-0.4c0.5-0.3,0.8-0.6,1.1-1v-2.5h-1.4
		c-1.9,0-2.9,0.7-3,2l0,0.2c0,0.5,0.2,0.9,0.5,1.2S97.8,18.2,98.4,18.2z"/>
	<path d="M125.7,1.7v13.1c0,1.8-0.6,3.3-1.7,4.4c-1.1,1.2-2.7,1.8-4.6,1.9l-0.7,0c-2.1,0-3.8-0.6-5-1.7s-1.9-2.7-1.9-4.7V1.7h2.5v13
		c0,1.4,0.4,2.5,1.1,3.2c0.8,0.8,1.9,1.2,3.3,1.2c1.4,0,2.5-0.4,3.3-1.1c0.8-0.8,1.1-1.8,1.1-3.2v-13H125.7z"/>
	<path d="M144.9,13.9c0,2.2-0.5,3.9-1.5,5.2c-1,1.3-2.3,2-4,2c-1.7,0-3.1-0.5-4.1-1.6v6.9h-2.4V6.6h2.2l0.1,1.6
		c1-1.2,2.4-1.8,4.1-1.8c1.7,0,3.1,0.6,4.1,1.9c1,1.3,1.5,3.1,1.5,5.4V13.9z M142.5,13.6c0-1.6-0.3-2.9-1-3.8s-1.6-1.4-2.8-1.4
		c-1.5,0-2.6,0.7-3.3,2v6.8c0.7,1.3,1.8,2,3.3,2c1.2,0,2.1-0.5,2.8-1.4C142.2,16.8,142.5,15.5,142.5,13.6z"/>
</g>
</svg>
